<?xml version="1.0" encoding="UTF-8" standalone="no"?>
<!-- Created with Inkscape (http://www.inkscape.org/) -->

<svg
   xmlns:dc="http://purl.org/dc/elements/1.1/"
   xmlns:cc="http://creativecommons.org/ns#"
   xmlns:rdf="http://www.w3.org/1999/02/22-rdf-syntax-ns#"
   xmlns:svg="http://www.w3.org/2000/svg"
   xmlns="http://www.w3.org/2000/svg"
   xmlns:sodipodi="http://sodipodi.sourceforge.net/DTD/sodipodi-0.dtd"
   xmlns:inkscape="http://www.inkscape.org/namespaces/inkscape"
   width="100"
   height="100"
   viewBox="0 0 26.458332 26.458334"
   version="1.1"
   id="svg8"
   inkscape:version="0.92.4 5da689c313, 2019-01-14"
   sodipodi:docname="deck.svg">
  <defs
     id="defs2" />
  <sodipodi:namedview
     id="base"
     pagecolor="#ffffff"
     bordercolor="#666666"
     borderopacity="1.0"
     inkscape:pageopacity="0.0"
     inkscape:pageshadow="2"
     inkscape:zoom="2.8"
     inkscape:cx="117.37748"
     inkscape:cy="56.00498"
     inkscape:document-units="px"
     inkscape:current-layer="layer1"
     showgrid="false"
     units="px"
     showborder="false"
     inkscape:window-width="1920"
     inkscape:window-height="1080"
     inkscape:window-x="0"
     inkscape:window-y="0"
     inkscape:window-maximized="0"
     fit-margin-top="0"
     fit-margin-left="0"
     fit-margin-right="0"
     fit-margin-bottom="0" />
  <metadata
     id="metadata5">
    <rdf:RDF>
      <cc:Work
         rdf:about="">
        <dc:format>image/svg+xml</dc:format>
        <dc:type
           rdf:resource="http://purl.org/dc/dcmitype/StillImage" />
        <dc:title></dc:title>
      </cc:Work>
    </rdf:RDF>
  </metadata>
  <g
     inkscape:label="Layer 1"
     inkscape:groupmode="layer"
     id="layer1"
     transform="translate(-3.605357,-92.162181)">
    <g
       id="g4465">
      <rect
         y="92.162178"
         x="3.6053569"
         height="26.458334"
         width="26.458334"
         id="rect2997"
         style="opacity:0.294;fill:none;fill-opacity:1;stroke:none;stroke-width:0.79142529;stroke-miterlimit:4;stroke-dasharray:none;stroke-opacity:1" />
      <g
         transform="matrix(0.87996314,0,0,0.87996314,-291.10032,-179.52367)"
         id="g2364">
        <path
           sodipodi:nodetypes="sszcs"
           inkscape:connector-curvature="0"
           id="path2171"
           d="m 340.14803,316.7622 c -3.7e-4,0.1857 6.88562,16.01223 6.99256,16.15848 0.26357,0.36047 13.38966,-3.73407 13.64257,-4.38216 0.25291,-0.64809 -4.18283,-10.43937 -7.02798,-15.55608 -4.38345,0.38206 -13.6063,3.35991 -13.60715,3.77976 z"
           style="fill:#f8efc6;fill-opacity:1;stroke:#000000;stroke-width:0.26458332px;stroke-linecap:butt;stroke-linejoin:miter;stroke-opacity:1" />
        <path
           sodipodi:nodetypes="zzzcz"
           inkscape:connector-curvature="0"
           id="path2173"
           d="m 340.14803,316.7622 c -0.0598,-0.20603 -1.04975,2.7575 -1.06342,2.99613 -0.0137,0.23863 6.5365,16.14096 6.81538,16.06959 0.27888,-0.0714 1.2406,-2.90724 1.2406,-2.90724 -0.033,0.11215 -6.93276,-15.95245 -6.99256,-16.15848 z"
           style="fill:#9c9273;fill-opacity:1;stroke:#000000;stroke-width:0.26458332px;stroke-linecap:butt;stroke-linejoin:miter;stroke-opacity:1" />
        <path
           sodipodi:nodetypes="sszss"
           inkscape:connector-curvature="0"
           id="path2175"
           d="m 347.14059,332.92068 c 0.0145,-0.14451 -1.16323,2.77208 -1.193,2.90569 -0.0625,0.28059 14.44902,-4.5513 14.55208,-4.68926 0.10306,-0.13796 0.37313,-2.73639 0.27323,-2.49777 -0.17709,0.42302 -13.67623,4.71769 -13.63231,4.28134 z"
           style="fill:#635733;fill-opacity:1;stroke:#000000;stroke-width:0.26458332px;stroke-linecap:butt;stroke-linejoin:miter;stroke-opacity:1" />
        <path
           sodipodi:nodetypes="zzzzz"
           inkscape:connector-curvature="0"
           id="path2177"
           d="m 341.99115,317.3195 c -0.12074,1.16558 5.31174,13.30878 6.04697,13.93142 0.73522,0.62264 11.54495,-2.74146 11.7933,-3.40769 0.24834,-0.66623 -5.78054,-13.26576 -6.5147,-13.8646 -0.73416,-0.59884 -11.20484,2.17529 -11.32557,3.34087 z"
           style="fill:#f8efc6;fill-opacity:1;stroke:#cd7142;stroke-width:0.26458332px;stroke-linecap:butt;stroke-linejoin:miter;stroke-opacity:1" />
        <path
           sodipodi:nodetypes="aaaaa"
           inkscape:connector-curvature="0"
           id="path2179"
           d="m 343.37262,316.89213 c -0.16861,-0.007 -0.37504,0.16789 -0.37811,0.33661 -0.003,0.1448 0.16906,0.30515 0.31381,0.30049 0.16261,-0.005 0.33179,-0.19686 0.33008,-0.35955 -10e-4,-0.12808 -0.13778,-0.27245 -0.26578,-0.27755 z"
           style="fill:#c54716;fill-opacity:1;stroke:#c54716;stroke-width:0.26458332px;stroke-linecap:butt;stroke-linejoin:miter;stroke-opacity:1" />
        <path
           style="fill:#c54716;fill-opacity:1;stroke:#c54716;stroke-width:0.26458332px;stroke-linecap:butt;stroke-linejoin:miter;stroke-opacity:1"
           d="m 343.16591,318.03196 c -0.13263,-0.024 -0.33122,0.0411 -0.36629,0.17125 -0.0423,0.15708 0.11893,0.36853 0.27837,0.40089 0.15492,0.0314 0.38271,-0.0962 0.40095,-0.25324 0.0172,-0.14796 -0.16645,-0.29242 -0.31303,-0.3189 z"
           id="path2181"
           inkscape:connector-curvature="0"
           sodipodi:nodetypes="aaaaa" />
        <path
           style="fill:#c54716;fill-opacity:1;stroke:#c54716;stroke-width:0.26458332px;stroke-linecap:butt;stroke-linejoin:miter;stroke-opacity:1"
           d="m 347.80861,329.66957 c -0.0486,0.16161 0.0697,0.40496 0.23234,0.44977 0.13954,0.0388 0.33755,-0.0881 0.36892,-0.2295 0.0355,-0.15877 -0.10844,-0.37024 -0.26647,-0.40892 -0.12433,-0.0308 -0.29811,0.0659 -0.33479,0.18865 z"
           id="path2183"
           inkscape:connector-curvature="0"
           sodipodi:nodetypes="aaaaa" />
        <path
           sodipodi:nodetypes="aaaaa"
           inkscape:connector-curvature="0"
           id="path2185"
           d="m 348.86159,330.15246 c -0.0561,0.12254 -0.0423,0.33107 0.0751,0.39732 0.14168,0.0799 0.38651,-0.0238 0.45739,-0.17027 0.0688,-0.1423 0.002,-0.39462 -0.14591,-0.45123 -0.13907,-0.0534 -0.32456,0.0888 -0.38656,0.22418 z"
           style="fill:#c54716;fill-opacity:1;stroke:#c54716;stroke-width:0.26458332px;stroke-linecap:butt;stroke-linejoin:miter;stroke-opacity:1" />
        <path
           sodipodi:nodetypes="aaaaa"
           inkscape:connector-curvature="0"
           id="path2187"
           d="m 357.98507,328.17267 c 0.14982,0.0777 0.41086,0.006 0.485,-0.14506 0.064,-0.12995 -0.0241,-0.34803 -0.15724,-0.40503 -0.14945,-0.0643 -0.38391,0.038 -0.45118,0.18617 -0.0533,0.11648 0.01,0.30515 0.12342,0.36392 z"
           style="fill:#c54716;fill-opacity:1;stroke:#c54716;stroke-width:0.26458332px;stroke-linecap:butt;stroke-linejoin:miter;stroke-opacity:1" />
        <path
           style="fill:#c54716;fill-opacity:1;stroke:#c54716;stroke-width:0.26458332px;stroke-linecap:butt;stroke-linejoin:miter;stroke-opacity:1"
           d="m 358.65454,327.22728 c 0.11003,0.0778 0.31751,0.10286 0.40435,-2.5e-4 0.10475,-0.12444 0.0482,-0.38423 -0.0827,-0.481 -0.12711,-0.094 -0.38743,-0.075 -0.47045,0.0599 -0.0782,0.12678 0.0272,0.33539 0.14875,0.42137 z"
           id="path2189"
           inkscape:connector-curvature="0"
           sodipodi:nodetypes="aaaaa" />
        <path
           style="fill:#c54716;fill-opacity:1;stroke:#c54716;stroke-width:0.26458332px;stroke-linecap:butt;stroke-linejoin:miter;stroke-opacity:1"
           d="m 353.55834,315.52798 c 0.0753,-0.15103 -5.4e-4,-0.4109 -0.15276,-0.48263 -0.13094,-0.0619 -0.34761,0.0296 -0.40248,0.16366 -0.0619,0.15046 0.0441,0.38326 0.19333,0.44817 0.11731,0.0514 0.30495,-0.0149 0.36191,-0.1292 z"
           id="path2191"
           inkscape:connector-curvature="0"
           sodipodi:nodetypes="aaaaa" />
        <path
           sodipodi:nodetypes="aaaaa"
           inkscape:connector-curvature="0"
           id="path2193"
           d="m 352.67301,314.8097 c 0.0761,-0.11125 0.0975,-0.31919 -0.007,-0.40431 -0.12608,-0.10278 -0.38494,-0.0421 -0.47962,0.0904 -0.0919,0.1286 -0.0688,0.38858 0.0674,0.46944 0.128,0.0762 0.33492,-0.0325 0.41895,-0.15543 z"
           style="fill:#c54716;fill-opacity:1;stroke:#c54716;stroke-width:0.26458332px;stroke-linecap:butt;stroke-linejoin:miter;stroke-opacity:1" />
        <path
           sodipodi:nodetypes="cscczc"
           inkscape:connector-curvature="0"
           id="path2195"
           d="m 348.369,315.91175 c 0,0 -0.89504,1.33779 -1.03944,1.84264 -0.10337,0.36139 2.0626,5.54119 3.5199,9.21316 1.03367,0.0926 4.0444,-0.57804 4.11052,-1.06305 0.0497,-0.52174 -4.30299,-8.86365 -4.63023,-9.11868 -0.32724,-0.25503 -1.96075,-0.87407 -1.96075,-0.87407 z"
           style="fill:#c54716;fill-opacity:1;stroke:none;stroke-width:0.26458332px;stroke-linecap:butt;stroke-linejoin:miter;stroke-opacity:1" />
        <path
           sodipodi:nodetypes="zzzzz"
           inkscape:connector-curvature="0"
           id="path2197"
           d="m 351.25108,327.84449 c 0.44982,0.0767 3.58292,-0.67159 4.04249,-1.02679 0.45957,-0.35519 0.55255,0.80745 0.52662,1.14204 -0.0259,0.33459 -3.72547,1.40812 -3.95491,1.20767 -0.22944,-0.20044 -1.06402,-1.39964 -0.6142,-1.32292 z"
           style="fill:#c54716;fill-opacity:1;stroke:none;stroke-width:0.26458332px;stroke-linecap:butt;stroke-linejoin:miter;stroke-opacity:1" />
        <g
           id="g2239"
           style="opacity:0.294"
           transform="translate(21.869093,22.691526)">
          <path
             sodipodi:nodetypes="cc"
             inkscape:connector-curvature="0"
             id="path2201"
             d="m 318.35143,295.93091 c 2.25625,4.6382 4.11555,9.5286 6.11378,14.29892"
             style="fill:none;stroke:#000000;stroke-width:0.26458332px;stroke-linecap:butt;stroke-linejoin:miter;stroke-opacity:1" />
          <path
             sodipodi:nodetypes="cc"
             inkscape:connector-curvature="0"
             id="path2205"
             d="m 317.93382,296.59073 c 2.25625,4.6382 4.11555,9.5286 6.11378,14.29892"
             style="fill:none;stroke:#000000;stroke-width:0.26458332px;stroke-linecap:butt;stroke-linejoin:miter;stroke-opacity:1" />
          <path
             style="fill:none;stroke:#000000;stroke-width:0.26458332px;stroke-linecap:butt;stroke-linejoin:miter;stroke-opacity:1"
             d="m 317.69996,297.39254 c 2.25625,4.6382 4.11555,9.5286 6.11378,14.29892"
             id="path2207"
             inkscape:connector-curvature="0"
             sodipodi:nodetypes="cc" />
        </g>
        <g
           id="g2244"
           style="opacity:0.294"
           transform="translate(21.869093,22.691526)">
          <path
             sodipodi:nodetypes="cc"
             inkscape:connector-curvature="0"
             id="path2209"
             d="m 325.90179,310.93141 c 3.90378,-1.20324 8.02738,-2.3768 12.32778,-3.80859"
             style="fill:none;stroke:#000000;stroke-width:0.26458332px;stroke-linecap:butt;stroke-linejoin:miter;stroke-opacity:1" />
          <path
             style="fill:none;stroke:#000000;stroke-width:0.26458332px;stroke-linecap:butt;stroke-linejoin:miter;stroke-opacity:1"
             d="m 325.43407,311.59958 c 3.90378,-1.20324 8.02738,-2.3768 12.32778,-3.80859"
             id="path2211"
             inkscape:connector-curvature="0"
             sodipodi:nodetypes="cc" />
          <path
             sodipodi:nodetypes="cc"
             inkscape:connector-curvature="0"
             id="path2213"
             d="m 325.70455,312.05654 c 3.90378,-1.20324 8.02738,-2.3768 12.32778,-3.80859"
             style="fill:none;stroke:#000000;stroke-width:0.26458332px;stroke-linecap:butt;stroke-linejoin:miter;stroke-opacity:1" />
        </g>
      </g>
      <path
         style="fill:#000000;fill-opacity:1;stroke:#000000;stroke-width:0.08289968px;stroke-linecap:butt;stroke-linejoin:miter;stroke-opacity:1"
         d="m 27.616032,95.629448 c -0.174489,0.0078 -0.581742,0.07174 -0.551484,0.388587 0.811425,-0.201711 0.963924,0.268617 0.947519,0.307152 -0.08288,0.19468 -0.232309,0.322858 -0.248051,0.584668 -0.0063,0.10403 0.27187,0.610549 0.339375,0.670649 0.06751,0.06009 0.572347,0.03782 0.578836,-0.511969 0.0065,-0.549812 -0.138547,-0.871509 -0.291608,-1.060054 -0.153064,-0.188544 -0.600102,-0.386843 -0.774587,-0.379033 z m -4.77354,0.06995 c -0.04147,0.0011 -0.08366,0.0038 -0.126454,0.0077 -0.513531,0.08841 -0.810892,0.546314 -0.784629,0.880812 0.02626,0.334499 0.217893,0.448861 0.236877,1.173228 0,0 0.463873,-0.141279 0.425672,0.01471 -0.0382,0.15601 0.13367,0.744385 0.569936,0.695746 0.08113,-0.06184 0.281363,-1.029922 0.578194,-0.940231 -0.201181,0.336586 -0.319713,0.731801 -0.337269,1.111695 -0.05747,1.038195 0.755281,2.159722 1.868158,2.099372 0.899412,0.0843 1.876634,-0.38003 2.008371,-1.353762 0.235517,-0.682415 0.03008,-1.471061 -0.431335,-2.021483 0.0089,-0.0016 0.01789,-0.0049 0.02673,-0.0058 0.09908,-0.0098 0.60268,0.897052 0.698497,0.891984 0.09582,-0.0049 0.410934,-0.307316 0.410934,-0.307316 0,0 -0.372396,-1.200264 -0.747715,-1.213866 -0.339001,-0.01226 -0.671604,-0.01918 -0.825762,0.240927 -0.306068,-0.20382 -0.667137,-0.318161 -1.058265,-0.293223 l -0.159002,-0.0044 c -0.40979,-0.02169 -0.76228,0.12257 -1.043856,0.362521 -0.129016,-0.161894 -0.255429,-0.388325 -0.547263,-0.44267 -0.303164,-0.05645 -0.414838,0.168778 -0.699465,0.444131 -0.295015,-0.342978 -0.303148,-0.54258 -0.210972,-0.888256 -0.0033,-0.146418 0.558304,-0.188484 0.873355,-0.185067 -0.179226,-0.213635 -0.434376,-0.27543 -0.724726,-0.266835 z m 1.824929,1.887104 v 1.58e-4 c 0.01485,-3.17e-4 0.02898,3.17e-4 0.04226,0.0022 0.212514,0.02801 0.293539,0.461379 0.132604,0.587263 -0.16089,0.125828 -0.105182,0.323446 -0.137786,0.424054 -0.08631,0.103016 -0.313303,0.03488 -0.443479,-0.0075 -0.155106,-0.09417 -0.206811,-0.240829 -0.201422,-0.525736 0.0051,-0.267102 0.385226,-0.478366 0.607819,-0.480556 z m 1.377237,0.0079 c 0.348586,-0.0049 0.568287,0.278873 0.573334,0.545975 0.0054,0.284906 -0.02375,0.371726 -0.133418,0.426152 -0.109669,0.05439 -0.30526,0.124663 -0.420001,0.01782 -0.11456,-0.106842 0.04824,-0.270879 -0.174214,-0.38989 -0.222521,-0.119044 -0.306854,-0.54749 0.0829,-0.595192 0.02434,-0.0027 0.04815,-0.0044 0.0714,-0.0049 z M 25.4268,99.071539 c 0.0951,1.25e-4 0.184352,0.0059 0.245133,0.01749 0.121557,0.02311 0.105674,0.04469 0.104104,0.389077 -0.0016,0.344379 0.314124,0.157487 0.474736,-0.213885 0.100705,-0.232872 0.300585,-0.135066 0.391019,-0.04747 0.08462,0.08199 0.05133,0.374925 -0.08047,0.448986 -0.266017,0.149486 -0.458055,0.628223 -0.839035,0.416123 -0.380983,-0.212107 -0.451703,0.0287 -0.77314,0.0333 -0.321433,0.005 -0.905314,-0.435616 -0.905255,-0.694772 5.6e-5,-0.259151 -0.01279,-0.293321 0.15997,-0.293386 v 1.58e-4 c 0.172746,-7.6e-5 0.27623,0.190059 0.581111,0.436681 0.06607,0.05341 0.210161,0.04551 0.210161,0.04551 0.0088,-0.109692 -0.0161,-0.499052 0.151713,-0.521358 0.0839,-0.01112 0.18485,-0.01668 0.279953,-0.01651 z"
         id="path3090"
         inkscape:connector-curvature="0" />
    </g>
  </g>
</svg>
