<?xml version="1.0" encoding="UTF-8" standalone="no"?>
<!-- Created with Inkscape (http://www.inkscape.org/) -->

<svg
   xmlns:dc="http://purl.org/dc/elements/1.1/"
   xmlns:cc="http://creativecommons.org/ns#"
   xmlns:rdf="http://www.w3.org/1999/02/22-rdf-syntax-ns#"
   xmlns:svg="http://www.w3.org/2000/svg"
   xmlns="http://www.w3.org/2000/svg"
   xmlns:sodipodi="http://sodipodi.sourceforge.net/DTD/sodipodi-0.dtd"
   xmlns:inkscape="http://www.inkscape.org/namespaces/inkscape"
   width="100"
   height="100"
   viewBox="0 0 26.458332 26.458334"
   version="1.1"
   id="svg8"
   inkscape:version="0.92.4 5da689c313, 2019-01-14"
   sodipodi:docname="elite.svg">
  <defs
     id="defs2" />
  <sodipodi:namedview
     id="base"
     pagecolor="#ffffff"
     bordercolor="#666666"
     borderopacity="1.0"
     inkscape:pageopacity="0.0"
     inkscape:pageshadow="2"
     inkscape:zoom="2.8"
     inkscape:cx="43.689791"
     inkscape:cy="47.822187"
     inkscape:document-units="px"
     inkscape:current-layer="layer1"
     showgrid="false"
     units="px"
     showborder="false"
     inkscape:window-width="939"
     inkscape:window-height="1030"
     inkscape:window-x="967"
     inkscape:window-y="12"
     inkscape:window-maximized="0"
     fit-margin-top="0"
     fit-margin-left="0"
     fit-margin-right="0"
     fit-margin-bottom="0" />
  <metadata
     id="metadata5">
    <rdf:RDF>
      <cc:Work
         rdf:about="">
        <dc:format>image/svg+xml</dc:format>
        <dc:type
           rdf:resource="http://purl.org/dc/dcmitype/StillImage" />
        <dc:title></dc:title>
      </cc:Work>
    </rdf:RDF>
  </metadata>
  <g
     inkscape:label="Layer 1"
     inkscape:groupmode="layer"
     id="layer1"
     transform="translate(32.505955,-94.593734)">
    <g
       id="g1536"
       transform="matrix(0.74666665,0,0,0.74666665,-8.2348425,30.666526)">
      <rect
         y="85.616798"
         x="-32.505955"
         height="35.435268"
         width="35.435268"
         id="rect1532"
         style="opacity:0.62300002;fill:none;fill-opacity:0.21739131;stroke:none;stroke-width:0.238125;stroke-miterlimit:4;stroke-dasharray:none;stroke-opacity:1" />
      <path
         inkscape:connector-curvature="0"
         id="path924"
         d="m -4.3504145,91.760786 c -0.7884623,0.03525 -2.6287126,0.324191 -2.4919883,1.755925 3.6665833,-0.911482 4.3556843,1.213784 4.2815527,1.387914 -0.3745231,0.879697 -1.0497351,1.458889 -1.1208652,2.641951 -0.028316,0.470076 1.2284948,2.758884 1.5335302,3.030454 0.3050353,0.27155 2.58626668,0.17094 2.61558802,-2.313448 0.0293072,-2.484413 -0.6260552,-3.938078 -1.31769052,-4.790039 -0.6916495,-0.851975 -2.7116788,-1.748053 -3.5001269,-1.712757 z m -21.5701845,0.316065 c -0.18741,0.0057 -0.378034,0.0177 -0.571405,0.03511 -2.320492,0.399469 -3.664176,2.468627 -3.545504,3.980113 0.118645,1.511486 0.984594,2.028283 1.070378,5.301466 0,0 2.096101,-0.63839 1.923486,0.0665 -0.172615,0.70496 0.604011,3.36364 2.575365,3.14385 0.36658,-0.27945 1.271393,-4.653894 2.612685,-4.24862 -0.909075,1.52094 -1.444688,3.30678 -1.524016,5.02342 -0.259673,4.69129 3.412885,9.75912 8.441644,9.48642 4.06417,0.38104 8.4799404,-1.71725 9.0752159,-6.11723 1.064233,-3.08362 0.1359174,-6.64729 -1.9490688,-9.134492 0.04035,-0.0085 0.080843,-0.02237 0.1207682,-0.02633 0.4476917,-0.04417 2.7233306,4.053522 3.1562982,4.030602 0.4329959,-0.0229 1.8568861,-1.38866 1.8568861,-1.38866 0,0 -1.6827419,-5.423637 -3.3786933,-5.485083 -1.5318451,-0.0555 -3.0347795,-0.08679 -3.7313701,1.08867 -1.3830302,-0.920996 -3.0145902,-1.43768 -4.7819832,-1.324996 l -0.718479,-0.01982 c -1.851719,-0.09797 -3.444514,0.553863 -4.716871,1.63813 -0.582986,-0.731561 -1.154207,-1.754736 -2.472917,-2.000293 -1.369906,-0.2551 -1.874527,0.762652 -3.160674,2.00689 -1.33308,-1.549811 -1.369834,-2.451751 -0.953318,-4.013767 -0.01515,-0.661634 2.52281,-0.851692 3.946431,-0.83626 -0.809869,-0.965339 -1.962816,-1.244592 -3.274815,-1.205742 z m 8.246305,8.527249 v 7.2e-4 c 0.06711,-0.001 0.130962,10e-4 0.190978,0.01 0.960284,0.12657 1.326412,2.08482 0.599197,2.65364 -0.727016,0.56858 -0.475286,1.46157 -0.622615,1.91617 -0.389998,0.46552 -1.415721,0.15762 -2.003945,-0.0337 -0.700881,-0.42553 -0.934517,-1.08823 -0.910165,-2.37563 0.02279,-1.20695 1.740719,-2.16159 2.74655,-2.1715 z m 6.223316,0.0358 c 1.5751549,-0.0221 2.567918,1.26013 2.5907267,2.46708 0.024352,1.28741 -0.1073181,1.67973 -0.6028785,1.92567 -0.4955604,0.24586 -1.3793772,0.56329 -1.8978592,0.0804 -0.517661,-0.48277 0.217977,-1.22402 -0.787217,-1.76178 -1.005505,-0.53792 -1.386583,-2.47395 0.374594,-2.68951 0.110008,-0.0127 0.217567,-0.0205 0.322634,-0.022 z m -2.791913,6.67473 c 0.42974,5.6e-4 0.833032,0.0269 1.107685,0.079 0.549276,0.10449 0.477508,0.20198 0.470415,1.75812 -0.0071,1.55615 1.419431,0.71164 2.145187,-0.96649 0.455054,-1.05227 1.3582532,-0.61029 1.7668973,-0.21436 0.3823525,0.37046 0.2319231,1.69415 -0.3636214,2.02882 -1.2020479,0.67549 -2.0698089,2.83877 -3.7913439,1.88032 -1.721549,-0.95845 -2.041111,0.12954 -3.493586,0.15071 -1.452461,0.0211 -4.090844,-1.96841 -4.090575,-3.13947 2.55e-4,-1.17101 -0.05776,-1.3254 0.722854,-1.32572 v 7.6e-4 c 0.78059,-3.3e-4 1.248203,0.85882 2.625867,1.97322 0.298551,0.24141 0.949652,0.20559 0.949652,0.20559 0.03964,-0.49566 -0.07277,-2.25507 0.685547,-2.35588 0.379096,-0.0504 0.835283,-0.0753 1.265022,-0.0746 z"
         style="fill:#000000;fill-opacity:1;stroke:#000000;stroke-width:0.37459862px;stroke-linecap:butt;stroke-linejoin:miter;stroke-opacity:1" />
    </g>
  </g>
</svg>
