<?xml version="1.0" encoding="UTF-8" standalone="no"?>
<!-- Created with Inkscape (http://www.inkscape.org/) -->

<svg
   xmlns:dc="http://purl.org/dc/elements/1.1/"
   xmlns:cc="http://creativecommons.org/ns#"
   xmlns:rdf="http://www.w3.org/1999/02/22-rdf-syntax-ns#"
   xmlns:svg="http://www.w3.org/2000/svg"
   xmlns="http://www.w3.org/2000/svg"
   xmlns:sodipodi="http://sodipodi.sourceforge.net/DTD/sodipodi-0.dtd"
   xmlns:inkscape="http://www.inkscape.org/namespaces/inkscape"
   width="100"
   height="100"
   viewBox="0 0 26.458332 26.458334"
   version="1.1"
   id="svg8"
   inkscape:version="0.92.4 5da689c313, 2019-01-14"
   sodipodi:docname="event.svg">
  <defs
     id="defs2" />
  <sodipodi:namedview
     id="base"
     pagecolor="#ffffff"
     bordercolor="#666666"
     borderopacity="1.0"
     inkscape:pageopacity="0.0"
     inkscape:pageshadow="2"
     inkscape:zoom="1.979899"
     inkscape:cx="175.1803"
     inkscape:cy="40.441253"
     inkscape:document-units="px"
     inkscape:current-layer="layer1"
     showgrid="false"
     units="px"
     showborder="false"
     inkscape:window-width="1920"
     inkscape:window-height="1056"
     inkscape:window-x="0"
     inkscape:window-y="0"
     inkscape:window-maximized="0"
     fit-margin-top="0"
     fit-margin-left="0"
     fit-margin-right="0"
     fit-margin-bottom="0" />
  <metadata
     id="metadata5">
    <rdf:RDF>
      <cc:Work
         rdf:about="">
        <dc:format>image/svg+xml</dc:format>
        <dc:type
           rdf:resource="http://purl.org/dc/dcmitype/StillImage" />
        <dc:title></dc:title>
      </cc:Work>
    </rdf:RDF>
  </metadata>
  <g
     inkscape:label="Layer 1"
     inkscape:groupmode="layer"
     id="layer1"
     transform="translate(76.729164,-35.062489)">
    <g
       id="g385">
      <rect
         y="35.062489"
         x="-76.729164"
         height="26.458332"
         width="26.458332"
         id="rect175"
         style="opacity:0.294;fill:none;fill-opacity:1;stroke:none;stroke-width:0.04813582;stroke-miterlimit:4;stroke-dasharray:none;stroke-opacity:1" />
      <path
         sodipodi:nodetypes="cccccccccccccccczcccccccccccccccccc"
         inkscape:connector-curvature="0"
         id="path91"
         d="m -63.905381,37.765552 c -0.865325,0.01167 -1.74307,0.167325 -2.629958,0.461837 -1.773823,0.589033 -3.32905,1.4943 -4.011257,3.169896 -0.550734,1.352684 -0.413387,3.044698 0.176151,4.245476 0.478376,0.974413 2.836058,2.642734 2.670497,1.800121 -0.165513,-0.842612 0.366375,-0.763194 1.232998,-0.782637 0.866604,-0.01942 -0.609766,-0.731722 -0.616807,-1.173649 -0.0084,-0.478311 0.356578,-0.896096 0.626482,-1.291076 0.411397,-0.602032 0.838643,-1.270147 1.486595,-1.60462 0.537688,-0.277534 1.203767,-0.337452 1.800121,-0.234846 0.822114,0.141513 1.782984,0.430879 2.230458,1.134902 0.434054,0.682889 0.401106,1.683879 0.07873,2.426005 -0.276282,0.635877 -0.967679,1.018305 -1.565285,1.369756 -1.098956,0.646271 -2.734021,0.355654 -3.600251,1.291076 -0.569786,0.615275 -0.700222,1.588763 -0.665201,2.426594 0.03586,0.858096 0.486482,2.276536 0.886131,2.41873 0.39964,0.142241 0.959685,0.134312 1.191449,0.141429 0.231763,0.0075 0.281876,-0.622868 1.913673,-0.56507 0.419793,0.02241 0.137786,0.5395 0.405542,0.68641 0.267755,0.146892 0.651827,0.141279 0.992081,-0.216709 0.340273,-0.35797 -0.613006,-2.002486 -0.105884,-2.778251 0.467804,-0.715715 1.687465,-0.447193 2.386623,-0.93941 1.133827,-0.798196 2.367217,-1.794891 2.73954,-3.130551 0.462416,-1.658795 -0.02456,-3.603931 -0.900065,-5.086819 -0.907742,-1.537595 -2.49374,-2.801373 -4.167403,-3.365415 -0.836804,-0.282026 -1.689614,-0.414657 -2.554901,-0.403114 z m 0.463648,16.798528 c -0.818312,-0.0269 -1.733217,0.321183 -2.268607,0.940614 -0.516395,0.597429 -0.790791,1.535756 -0.581076,2.297063 0.200908,0.729388 0.901176,1.326171 1.604602,1.60463 0.815118,0.322659 1.824243,0.265281 2.628762,-0.08293 0.454907,-0.196883 0.869191,-0.590406 1.051383,-1.051384 0.312079,-0.789567 0.376816,-1.832079 -0.08293,-2.545833 -0.473529,-0.735168 -1.478134,-1.13336 -2.352135,-1.162161 z"
         style="fill:#000000;stroke:#000000;stroke-width:0.30990687px;stroke-linecap:butt;stroke-linejoin:miter;stroke-opacity:1" />
    </g>
  </g>
</svg>
