<?xml version="1.0" encoding="UTF-8" standalone="no"?>
<!-- Created with Inkscape (http://www.inkscape.org/) -->

<svg
   xmlns:dc="http://purl.org/dc/elements/1.1/"
   xmlns:cc="http://creativecommons.org/ns#"
   xmlns:rdf="http://www.w3.org/1999/02/22-rdf-syntax-ns#"
   xmlns:svg="http://www.w3.org/2000/svg"
   xmlns="http://www.w3.org/2000/svg"
   xmlns:sodipodi="http://sodipodi.sourceforge.net/DTD/sodipodi-0.dtd"
   xmlns:inkscape="http://www.inkscape.org/namespaces/inkscape"
   width="100"
   height="100"
   viewBox="0 0 26.458332 26.458334"
   version="1.1"
   id="svg8"
   inkscape:version="0.92.4 5da689c313, 2019-01-14"
   sodipodi:docname="monster.svg">
  <defs
     id="defs2" />
  <sodipodi:namedview
     id="base"
     pagecolor="#ffffff"
     bordercolor="#666666"
     borderopacity="1.0"
     inkscape:pageopacity="0.0"
     inkscape:pageshadow="2"
     inkscape:zoom="3.959798"
     inkscape:cx="42.377095"
     inkscape:cy="36.074534"
     inkscape:document-units="px"
     inkscape:current-layer="layer1"
     showgrid="false"
     units="px"
     showborder="false"
     inkscape:window-width="1920"
     inkscape:window-height="1056"
     inkscape:window-x="0"
     inkscape:window-y="0"
     inkscape:window-maximized="0"
     fit-margin-top="0"
     fit-margin-left="0"
     fit-margin-right="0"
     fit-margin-bottom="0" />
  <metadata
     id="metadata5">
    <rdf:RDF>
      <cc:Work
         rdf:about="">
        <dc:format>image/svg+xml</dc:format>
        <dc:type
           rdf:resource="http://purl.org/dc/dcmitype/StillImage" />
        <dc:title></dc:title>
      </cc:Work>
    </rdf:RDF>
  </metadata>
  <g
     inkscape:label="Layer 1"
     inkscape:groupmode="layer"
     id="layer1"
     transform="translate(147.7887,-53.961296)">
    <g
       id="g314">
      <rect
         y="53.961296"
         x="-147.7887"
         height="26.458334"
         width="26.458334"
         id="rect175"
         style="opacity:0.294;fill:none;fill-opacity:1;stroke:none;stroke-width:0.04813582;stroke-miterlimit:4;stroke-dasharray:none;stroke-opacity:1" />
      <g
         id="g149"
         transform="matrix(0.99343215,0,0,0.99343215,-455.01253,-208.25099)">
        <path
           style="fill:#ffffff;stroke:#000000;stroke-width:0.26458332px;stroke-linecap:butt;stroke-linejoin:miter;stroke-opacity:1"
           d="m 314.94865,273.14024 v 0.18899 l -0.28348,5.33891 3.07107,7.74851 12.18973,-1.13393 1.18118,-8.78794 -0.89771,-4.77195 -9.87462,-2.07887 z"
           id="path145"
           inkscape:connector-curvature="0" />
        <path
           style="fill:#000000;stroke:#000000;stroke-width:0.39318097px;stroke-linecap:butt;stroke-linejoin:miter;stroke-opacity:1"
           d="m 331.68221,267.82478 c -0.69232,-0.0409 -2.00496,1.33372 -3.9464,1.16496 -2.24231,-0.3468 -4.46277,-1.19174 -6.58426,-0.75105 -2.12147,0.44068 -4.13574,1.62273 -5.52984,1.66181 -1.39411,0.0392 -1.32978,-1.84347 -1.9306,-1.8607 -0.60079,-0.0172 -1.16433,0.12141 -1.12348,0.95685 0.0411,0.83538 -0.22518,1.23424 0.0354,1.992 0.26051,0.75779 1.62207,1.87969 1.96514,2.18246 0.34313,0.30278 0.17072,1.24824 0.42083,1.29934 0.25011,0.0514 0.77343,0.006 0.94918,-0.006 0.35143,-0.0233 0.66904,-0.99245 0.9123,-1.53818 0.24322,-0.54571 1.01275,-1.10423 1.6856,-1.27015 0.67284,-0.16594 1.64515,0.0459 2.07112,0.56136 0.42595,0.51541 0.25896,0.95047 0.14058,1.8607 -0.11844,0.91023 -0.27884,2.89813 -1.19412,3.44032 -0.9153,0.54221 -2.12286,0.0785 -2.70312,-0.45614 -0.58034,-0.53454 -0.0437,-1.52726 -0.48228,-1.69406 -0.43856,-0.1668 -1.0816,-0.13687 -1.47443,0.14058 -0.39282,0.27741 -1.31581,2.76116 -1.41298,4.22131 0.0253,1.27621 0.14519,3.22419 1.08813,4.59914 0.94297,1.37498 2.30401,2.33388 4.35268,2.98419 2.04862,0.65031 5.56905,0.53985 7.61788,0.10517 2.04879,-0.43463 3.51782,-1.16374 4.4939,-2.07111 0.97612,-0.90736 1.15512,-1.39234 1.47443,-2.66856 0.31934,-1.27622 0.0468,-3.18961 -0.21118,-4.62524 -0.25796,-1.43564 -1.0551,-2.62474 -1.34233,-2.90434 -0.2872,-0.27957 -1.24275,-0.40602 -1.39535,-0.0706 -0.15255,0.33537 -0.56205,1.98075 -1.20872,2.2754 -0.64667,0.29463 -1.74269,0.27617 -2.28918,0.19429 -0.54652,-0.0818 -0.7985,-1.1161 -1.18953,-1.98359 -0.39105,-0.86747 -0.67949,-1.47682 -0.3325,-2.32913 0.34694,-0.85229 1.19939,-2.16624 2.45738,-2.03579 1.25794,0.13048 2.01666,2.89838 2.42203,2.90432 0.40538,0.006 0.98799,0.0862 1.12348,-0.2104 0.13552,-0.29662 1.67443,-5.88036 1.27016,-6.04132 -0.0407,-0.0162 -0.0837,-0.0249 -0.12973,-0.0276 z m -2.39979,11.8415 c 0.2349,0.009 0.51145,0.12439 0.67963,0.27416 0.18419,0.16403 -0.0709,2.52161 -0.7541,3.51097 -0.39232,0.56806 -1.17226,1.58287 -1.99664,1.58733 -0.58754,0.003 -0.96712,0.0694 -1.36383,0.0522 -0.93168,-0.0406 -1.00369,-1.11644 -1.69713,-1.18108 -0.69345,-0.0652 -1.5776,-0.0946 -2.31453,-0.0722 -0.58765,0.0179 -0.85868,1.09202 -1.57352,1.11119 -0.56331,0.0152 -1.75146,-0.0405 -2.23236,-0.21272 -0.48095,-0.17228 -1.9849,-4.13695 -1.873,-4.34802 0.17028,-0.32127 0.71835,-0.54622 1.15883,-0.4477 0.44044,0.0986 2.05256,2.68917 2.36907,2.79987 0.31651,0.1107 1.09103,0.0503 1.34311,-0.0614 0.25206,-0.11173 -0.20693,-2.62568 0.0308,-2.71618 0.31018,-0.11844 3.5006,-0.25304 3.78744,-0.1229 0.28686,0.13018 -0.0832,2.33053 0.32406,2.76916 0.40733,0.43864 -0.0229,0.41908 0.80787,0.17509 0.83078,-0.24399 2.8358,-2.99633 3.08936,-3.08861 0.0634,-0.023 0.13672,-0.0323 0.21503,-0.0291 z"
           id="path86"
           inkscape:connector-curvature="0" />
      </g>
    </g>
  </g>
</svg>
