<?xml version="1.0" encoding="UTF-8" standalone="no"?>
<!-- Created with Inkscape (http://www.inkscape.org/) -->

<svg
   xmlns:dc="http://purl.org/dc/elements/1.1/"
   xmlns:cc="http://creativecommons.org/ns#"
   xmlns:rdf="http://www.w3.org/1999/02/22-rdf-syntax-ns#"
   xmlns:svg="http://www.w3.org/2000/svg"
   xmlns="http://www.w3.org/2000/svg"
   xmlns:sodipodi="http://sodipodi.sourceforge.net/DTD/sodipodi-0.dtd"
   xmlns:inkscape="http://www.inkscape.org/namespaces/inkscape"
   width="100.00001"
   height="100.00001"
   viewBox="0 0 26.458334 26.458336"
   version="1.1"
   id="svg8"
   inkscape:version="0.92.4 5da689c313, 2019-01-14"
   sodipodi:docname="shop.svg">
  <defs
     id="defs2" />
  <sodipodi:namedview
     id="base"
     pagecolor="#ffffff"
     bordercolor="#666666"
     borderopacity="1.0"
     inkscape:pageopacity="0.0"
     inkscape:pageshadow="2"
     inkscape:zoom="1.979899"
     inkscape:cx="103.57531"
     inkscape:cy="-26.786843"
     inkscape:document-units="px"
     inkscape:current-layer="layer1"
     showgrid="false"
     units="px"
     showborder="false"
     inkscape:window-width="939"
     inkscape:window-height="1030"
     inkscape:window-x="967"
     inkscape:window-y="12"
     inkscape:window-maximized="0"
     fit-margin-top="0"
     fit-margin-left="0"
     fit-margin-right="0"
     fit-margin-bottom="0" />
  <metadata
     id="metadata5">
    <rdf:RDF>
      <cc:Work
         rdf:about="">
        <dc:format>image/svg+xml</dc:format>
        <dc:type
           rdf:resource="http://purl.org/dc/dcmitype/StillImage" />
        <dc:title></dc:title>
      </cc:Work>
    </rdf:RDF>
  </metadata>
  <g
     inkscape:label="Layer 1"
     inkscape:groupmode="layer"
     id="layer1"
     transform="translate(119.44046,-99.696435)">
    <g
       id="g224">
      <rect
         y="99.696434"
         x="-119.44047"
         height="26.458334"
         width="26.458334"
         id="rect175"
         style="opacity:0.294;fill:none;fill-opacity:1;stroke:none;stroke-width:0.04813582;stroke-miterlimit:4;stroke-dasharray:none;stroke-opacity:1" />
      <g
         transform="matrix(0.92117978,0,0,0.92117978,-342.5044,-126.55199)"
         id="g80">
        <path
           style="fill:#000000;stroke:#000000;stroke-width:0.26458332px;stroke-linecap:butt;stroke-linejoin:miter;stroke-opacity:1"
           d="m 252.17433,251.71623 c -0.75018,0.12174 -3.61193,-0.25482 -4.01191,1.04882 -0.22902,0.74642 0.29503,1.91402 1.24845,2.011 0.81042,0.0824 1.79035,0.12797 1.20707,1.0626 -0.72109,1.15546 -5.65317,2.91926 -5.42889,7.91786 0.22428,4.99859 2.26334,5.37765 3.72504,5.87993 1.46169,0.50228 9.212,0.88471 12.27771,0.28397 3.0657,-0.60074 4.55902,-1.90554 4.94734,-3.46787 0.38833,-1.56233 0.56776,-5.0095 -0.8032,-6.0116 -1.37095,-1.0021 -3.45371,-1.54291 -3.93203,-2.84547 -0.47831,-1.30256 -0.52113,-1.87835 0.16399,-2.1854 0.68511,-0.30706 1.01108,1.96444 2.21308,0.8963 1.202,-1.06814 0.46757,-2.19422 -0.60137,-3.4745 -1.06894,-1.28028 -4.06211,-2.51146 -5.94675,-2.6727 -4.48525,-0.22903 -3.83395,1.27511 -5.05853,1.55706 z"
           id="path66"
           inkscape:connector-curvature="0"
           sodipodi:nodetypes="cssszzzzzzzzzcc" />
        <g
           id="g74"
           style="fill:#ffffff"
           transform="translate(-24.001488,17.103422)">
          <path
             sodipodi:nodetypes="zczcszcczzccczsz"
             inkscape:connector-curvature="0"
             id="path68"
             d="m 280.20084,239.32713 c -0.0989,0.055 -0.87643,2.32297 -0.87643,2.32297 -1.99952,1.06506 -5.15426,2.7865 -5.05543,3.40178 0.0988,0.61528 2.75061,1.31808 4.34671,1.81901 0,0 -0.28847,3.36253 0.0375,3.56118 0.29958,0.18257 1.31258,-0.0188 1.48829,-0.21261 0.17571,-0.19384 0.246,-2.61624 0.246,-2.61624 l 3.89789,0.85045 c 0,0 0.6668,-1.24482 0.4653,-1.46847 -0.20151,-0.22364 -3.60877,-0.95792 -3.853,-1.35252 -0.24423,-0.3946 -0.0613,-3.08489 -0.0613,-3.08489 l 2.57495,-1.1103 -0.35435,-0.70871 c 0,0 -1.48458,0.25249 -1.63002,0.14174 -0.14544,-0.11075 -0.24579,-1.2898 -0.30476,-1.33078 -0.0711,-0.0494 -0.82243,-0.26765 -0.92135,-0.21261 z"
             style="fill:#ffffff;stroke:none;stroke-width:0.26458332px;stroke-linecap:butt;stroke-linejoin:miter;stroke-opacity:1" />
          <path
             sodipodi:nodetypes="ccccc"
             inkscape:connector-curvature="0"
             id="path70"
             d="m 279.08786,243.4542 -0.0334,0.008 c -1.04571,0.1521 -1.79216,0.52497 -2.39707,1.00226 0.46616,0.59515 1.24424,0.83678 2.03793,1.06072 0.35088,-0.59351 0.59358,-1.23462 0.39254,-2.07098 z"
             style="fill:#000000;stroke:none;stroke-width:0.26458332px;stroke-linecap:butt;stroke-linejoin:miter;stroke-opacity:1" />
        </g>
      </g>
    </g>
  </g>
</svg>
